<svg width="1722" height="427" viewBox="0 0 1722 427" fill="none" xmlns="http://www.w3.org/2000/svg">
<path d="M368.354 239.883C368.354 248.517 366.838 256.46 363.806 263.71C360.84 270.96 356.721 277.222 351.448 282.495C346.175 287.702 339.913 291.788 332.663 294.754C325.413 297.72 317.536 299.203 309.034 299.203H239.629C237.784 299.203 236.07 298.874 234.488 298.214C232.906 297.555 231.522 296.666 230.336 295.545C229.215 294.359 228.325 292.975 227.666 291.393C227.007 289.811 226.678 288.097 226.678 286.252V170.379C226.678 168.6 227.007 166.919 227.666 165.337C228.325 163.755 229.215 162.371 230.336 161.185C231.522 159.998 232.906 159.076 234.488 158.416C236.07 157.757 237.784 157.428 239.629 157.428H309.034C317.536 157.428 325.413 158.911 332.663 161.877C339.913 164.843 346.175 168.962 351.448 174.235C356.721 179.442 360.84 185.704 363.806 193.02C366.838 200.27 368.354 208.18 368.354 216.748V239.883ZM342.649 216.748C342.649 211.739 341.825 207.158 340.177 203.006C338.595 198.853 336.321 195.327 333.355 192.427C330.389 189.461 326.83 187.187 322.678 185.605C318.591 183.957 314.043 183.133 309.034 183.133H252.383V273.498H309.034C314.043 273.498 318.591 272.707 322.678 271.125C326.83 269.477 330.389 267.203 333.355 264.303C336.321 261.337 338.595 257.811 340.177 253.724C341.825 249.572 342.649 244.958 342.649 239.883V216.748ZM552.721 286.252C552.721 288.097 552.392 289.811 551.733 291.393C551.074 292.975 550.151 294.359 548.964 295.545C547.778 296.666 546.394 297.555 544.812 298.214C543.23 298.874 541.549 299.203 539.77 299.203H481.834C476.363 299.203 470.826 298.61 465.224 297.424C459.622 296.237 454.184 294.425 448.911 291.986C443.704 289.481 438.794 286.317 434.18 282.495C429.566 278.672 425.512 274.157 422.019 268.95C418.592 263.677 415.889 257.679 413.912 250.956C411.935 244.167 410.946 236.62 410.946 228.315V157.428H436.651V228.315C436.651 235.566 437.64 241.695 439.617 246.705C441.661 251.714 444.231 255.899 447.329 259.261C450.427 262.622 453.821 265.259 457.512 267.17C461.203 269.082 464.697 270.499 467.992 271.421C471.354 272.344 474.287 272.937 476.791 273.201C479.362 273.399 481.043 273.498 481.834 273.498H527.016V157.428H552.721V286.252ZM744.602 205.082C744.602 210.948 743.877 216.188 742.427 220.802C740.977 225.415 739 229.502 736.495 233.061C734.057 236.554 731.222 239.553 727.993 242.058C724.763 244.563 721.369 246.639 717.809 248.287C714.316 249.868 710.757 251.022 707.132 251.747C703.573 252.472 700.211 252.834 697.047 252.834L750.732 299.203H710.988L657.402 252.834H638.914V227.129H697.047C700.277 226.865 703.21 226.206 705.847 225.152C708.549 224.031 710.856 222.548 712.767 220.703C714.745 218.857 716.261 216.649 717.315 214.079C718.37 211.442 718.897 208.443 718.897 205.082V188.868C718.897 187.417 718.699 186.33 718.304 185.605C717.974 184.814 717.513 184.254 716.92 183.924C716.392 183.529 715.799 183.298 715.14 183.232C714.547 183.166 713.987 183.133 713.459 183.133H628.631V299.203H602.926V170.379C602.926 168.6 603.256 166.919 603.915 165.337C604.574 163.755 605.464 162.371 606.584 161.185C607.77 159.998 609.155 159.076 610.736 158.416C612.318 157.757 614.032 157.428 615.878 157.428H713.459C719.194 157.428 724.038 158.482 727.993 160.592C731.947 162.635 735.144 165.238 737.583 168.402C740.088 171.5 741.867 174.861 742.922 178.486C744.042 182.112 744.602 185.506 744.602 188.67V205.082ZM816.558 215.364H906.823V157.428H932.529V299.203H906.823V241.267H816.558V299.203H790.852V157.428H816.558V215.364ZM1122.04 299.203H1096.33V264.402H1005.97V299.203H980.262V228.315C980.262 217.967 982.041 208.443 985.601 199.743C989.16 191.043 994.103 183.562 1000.43 177.3C1006.76 171.039 1014.24 166.161 1022.87 162.668C1031.51 159.174 1040.93 157.428 1051.15 157.428H1109.09C1110.87 157.428 1112.55 157.757 1114.13 158.416C1115.71 159.076 1117.09 159.998 1118.28 161.185C1119.47 162.371 1120.39 163.755 1121.05 165.337C1121.71 166.919 1122.04 168.6 1122.04 170.379V299.203ZM1005.97 238.697H1096.33V183.133H1051.15C1050.36 183.133 1048.68 183.265 1046.11 183.529C1043.6 183.726 1040.67 184.287 1037.31 185.209C1034.01 186.132 1030.52 187.549 1026.83 189.461C1023.14 191.372 1019.74 194.009 1016.64 197.37C1013.55 200.732 1010.98 204.95 1008.93 210.025C1006.96 215.034 1005.97 221.131 1005.97 228.315V238.697ZM1299.19 299.203H1206.45C1204.08 299.203 1201.51 298.939 1198.74 298.412C1196.04 297.819 1193.33 296.929 1190.63 295.743C1187.99 294.556 1185.46 293.04 1183.02 291.195C1180.58 289.283 1178.4 287.01 1176.49 284.373C1174.65 281.671 1173.16 278.573 1172.04 275.08C1170.92 271.52 1170.36 267.533 1170.36 263.117V193.514C1170.36 191.141 1170.63 188.604 1171.15 185.902C1171.75 183.133 1172.64 180.431 1173.82 177.794C1175.01 175.092 1176.56 172.522 1178.47 170.083C1180.38 167.644 1182.66 165.502 1185.29 163.656C1187.99 161.745 1191.09 160.229 1194.59 159.109C1198.08 157.988 1202.03 157.428 1206.45 157.428H1299.19V183.133H1206.45C1203.09 183.133 1200.52 184.023 1198.74 185.803C1196.96 187.582 1196.07 190.219 1196.07 193.712V263.117C1196.07 266.412 1196.96 268.983 1198.74 270.828C1200.58 272.608 1203.15 273.498 1206.45 273.498H1299.19V299.203ZM1492.35 299.203H1455.87L1398.03 241.267H1379.94V215.364H1398.03L1455.87 157.428H1492.35L1419.49 228.315L1492.35 299.203ZM1369.66 299.203H1343.95V157.428H1369.66V299.203Z" fill="url(#paint0_linear_351_18549)"/>
<path d="M363.806 263.71L358.673 261.563L358.665 261.583L358.657 261.603L363.806 263.71ZM351.448 282.495L355.357 286.453L355.37 286.441L355.382 286.429L351.448 282.495ZM234.488 298.214L232.348 303.35L234.488 298.214ZM230.336 295.545L226.291 299.365L226.4 299.481L226.516 299.59L230.336 295.545ZM227.666 291.393L232.802 289.253L227.666 291.393ZM227.666 165.337L232.802 167.477L227.666 165.337ZM230.336 161.185L226.402 157.251L226.345 157.307L226.291 157.365L230.336 161.185ZM351.448 174.235L347.514 178.169L347.526 178.182L347.539 178.194L351.448 174.235ZM363.806 193.02L358.65 195.11L358.661 195.138L358.673 195.166L363.806 193.02ZM340.177 203.006L334.978 204.986L334.991 205.022L335.006 205.058L340.177 203.006ZM333.355 192.427L329.421 196.361L329.443 196.383L329.465 196.405L333.355 192.427ZM322.678 185.605L320.597 190.765L320.647 190.785L320.697 190.804L322.678 185.605ZM252.383 183.133V177.57H246.819V183.133H252.383ZM252.383 273.498H246.819V279.061H252.383V273.498ZM322.678 271.125L324.686 276.313L324.708 276.305L324.73 276.296L322.678 271.125ZM333.355 264.303L337.245 268.281L337.267 268.259L337.289 268.237L333.355 264.303ZM340.177 253.724L335.006 251.672L334.997 251.694L334.988 251.716L340.177 253.724ZM362.79 239.883C362.79 247.853 361.394 255.057 358.673 261.563L368.939 265.856C372.282 257.862 373.918 249.181 373.918 239.883H362.79ZM358.657 261.603C355.956 268.205 352.238 273.836 347.514 278.56L355.382 286.429C361.204 280.607 365.724 273.715 368.956 265.816L358.657 261.603ZM347.539 278.536C342.812 283.203 337.173 286.898 330.556 289.605L334.77 299.904C342.654 296.678 349.538 292.2 355.357 286.453L347.539 278.536ZM330.556 289.605C324.03 292.274 316.876 293.639 309.034 293.639V304.767C318.197 304.767 326.796 303.166 334.77 299.904L330.556 289.605ZM309.034 293.639H239.629V304.767H309.034V293.639ZM239.629 293.639C238.461 293.639 237.481 293.434 236.628 293.079L232.348 303.35C234.659 304.313 237.106 304.767 239.629 304.767V293.639ZM236.628 293.079C235.636 292.665 234.829 292.135 234.156 291.5L226.516 299.59C228.216 301.196 230.176 302.445 232.348 303.35L236.628 293.079ZM234.381 291.725C233.745 291.052 233.215 290.245 232.802 289.253L222.531 293.533C223.435 295.704 224.685 297.665 226.291 299.365L234.381 291.725ZM232.802 289.253C232.447 288.4 232.241 287.42 232.241 286.252H221.114C221.114 288.775 221.568 291.222 222.531 293.533L232.802 289.253ZM232.241 286.252V170.379H221.114V286.252H232.241ZM232.241 170.379C232.241 169.306 232.436 168.355 232.802 167.477L222.531 163.197C221.578 165.483 221.114 167.894 221.114 170.379H232.241ZM232.802 167.477C233.215 166.485 233.745 165.678 234.381 165.005L226.291 157.365C224.685 159.065 223.435 161.025 222.531 163.197L232.802 167.477ZM234.27 165.119C234.931 164.458 235.702 163.938 236.628 163.552L232.348 153.281C230.11 154.213 228.113 155.539 226.402 157.251L234.27 165.119ZM236.628 163.552C237.481 163.197 238.461 162.992 239.629 162.992V151.864C237.106 151.864 234.659 152.318 232.348 153.281L236.628 163.552ZM239.629 162.992H309.034V151.864H239.629V162.992ZM309.034 162.992C316.876 162.992 324.03 164.356 330.556 167.026L334.77 156.727C326.796 153.465 318.197 151.864 309.034 151.864V162.992ZM330.556 167.026C337.158 169.727 342.789 173.445 347.514 178.169L355.382 170.301C349.56 164.48 342.669 159.959 334.77 156.727L330.556 167.026ZM347.539 178.194C352.239 182.835 355.949 188.449 358.65 195.11L368.962 190.93C365.731 182.959 361.203 176.049 355.357 170.276L347.539 178.194ZM358.673 195.166C361.396 201.678 362.79 208.85 362.79 216.748H373.918C373.918 207.51 372.28 198.863 368.939 190.873L358.673 195.166ZM362.79 216.748V239.883H373.918V216.748H362.79ZM348.212 216.748C348.212 211.121 347.285 205.833 345.348 200.953L335.006 205.058C336.365 208.482 337.085 212.357 337.085 216.748H348.212ZM345.376 201.025C343.528 196.174 340.827 191.951 337.245 188.449L329.465 196.405C331.815 198.702 333.662 201.532 334.978 204.986L345.376 201.025ZM337.289 188.493C333.736 184.939 329.499 182.25 324.658 180.406L320.697 190.804C324.161 192.124 327.042 193.982 329.421 196.361L337.289 188.493ZM324.758 180.445C319.926 178.496 314.659 177.57 309.034 177.57V188.697C313.427 188.697 317.256 189.418 320.597 190.765L324.758 180.445ZM309.034 177.57H252.383V188.697H309.034V177.57ZM246.819 183.133V273.498H257.947V183.133H246.819ZM252.383 279.061H309.034V267.934H252.383V279.061ZM309.034 279.061C314.633 279.061 319.874 278.176 324.686 276.313L320.669 265.936C317.308 267.237 313.454 267.934 309.034 267.934V279.061ZM324.73 276.296C329.514 274.398 333.712 271.736 337.245 268.281L329.465 260.325C327.066 262.671 324.146 264.557 320.625 265.953L324.73 276.296ZM337.289 268.237C340.827 264.699 343.517 260.509 345.366 255.733L334.988 251.716C333.673 255.113 331.815 257.975 329.421 260.369L337.289 268.237ZM345.348 255.776C347.288 250.888 348.212 245.566 348.212 239.883H337.085C337.085 244.35 336.361 248.256 335.006 251.672L345.348 255.776ZM348.212 239.883V216.748H337.085V239.883H348.212ZM548.964 295.545L552.785 299.59L552.842 299.535L552.899 299.479L548.964 295.545ZM448.911 291.986L446.499 297L446.537 297.018L446.575 297.036L448.911 291.986ZM434.18 282.495L430.63 286.779L434.18 282.495ZM422.019 268.95L417.354 271.982L417.376 272.016L417.399 272.05L422.019 268.95ZM413.912 250.956L408.57 252.512L408.572 252.519L408.574 252.526L413.912 250.956ZM410.946 157.428V151.864H405.382V157.428H410.946ZM436.651 157.428H442.215V151.864H436.651V157.428ZM439.617 246.705L434.442 248.748L434.454 248.777L434.466 248.806L439.617 246.705ZM447.329 259.261L443.238 263.031L447.329 259.261ZM467.992 271.421L466.492 276.779L466.506 276.783L466.519 276.787L467.992 271.421ZM476.791 273.201L476.209 278.734L476.287 278.742L476.365 278.748L476.791 273.201ZM527.016 273.498V279.061H532.58V273.498H527.016ZM527.016 157.428V151.864H521.452V157.428H527.016ZM552.721 157.428H558.285V151.864H552.721V157.428ZM547.158 286.252C547.158 287.42 546.952 288.4 546.597 289.253L556.868 293.533C557.831 291.222 558.285 288.775 558.285 286.252H547.158ZM546.597 289.253C546.211 290.178 545.692 290.949 545.03 291.611L552.899 299.479C554.61 297.768 555.936 295.771 556.868 293.533L546.597 289.253ZM545.144 291.5C544.472 292.135 543.664 292.665 542.672 293.079L546.952 303.35C549.124 302.445 551.084 301.196 552.785 299.59L545.144 291.5ZM542.672 293.079C541.794 293.444 540.844 293.639 539.77 293.639V304.767C542.255 304.767 544.666 304.303 546.952 303.35L542.672 293.079ZM539.77 293.639H481.834V304.767H539.77V293.639ZM481.834 293.639C476.768 293.639 471.618 293.09 466.377 291.98L464.071 302.867C470.035 304.129 475.958 304.767 481.834 304.767V293.639ZM466.377 291.98C461.188 290.882 456.147 289.202 451.246 286.936L446.575 297.036C452.221 299.647 458.055 301.593 464.071 302.867L466.377 291.98ZM451.323 286.972C446.538 284.671 442.008 281.755 437.73 278.21L430.63 286.779C435.579 290.88 440.87 294.292 446.499 297L451.323 286.972ZM437.73 278.21C433.546 274.744 429.849 270.634 426.639 265.85L417.399 272.05C421.176 277.68 425.585 282.599 430.63 286.779L437.73 278.21ZM426.684 265.918C423.582 261.145 421.092 255.65 419.25 249.386L408.574 252.526C410.687 259.708 413.601 266.209 417.354 271.982L426.684 265.918ZM419.254 249.4C417.447 243.196 416.51 236.183 416.51 228.315H405.382C405.382 237.058 406.423 245.138 408.57 252.512L419.254 249.4ZM416.51 228.315V157.428H405.382V228.315H416.51ZM410.946 162.992H436.651V151.864H410.946V162.992ZM431.088 157.428V228.315H442.215V157.428H431.088ZM431.088 228.315C431.088 236.037 432.136 242.905 434.442 248.748L444.793 244.662C443.144 240.486 442.215 235.094 442.215 228.315H431.088ZM434.466 248.806C436.715 254.32 439.615 259.101 443.238 263.031L451.42 255.49C448.847 252.698 446.606 249.108 444.769 244.603L434.466 248.806ZM443.238 263.031C446.731 266.822 450.633 269.873 454.954 272.111L460.071 262.23C457.01 260.644 454.123 258.423 451.42 255.49L443.238 263.031ZM454.954 272.111C458.913 274.161 462.762 275.735 466.492 276.779L469.492 266.064C466.631 265.263 463.493 264.002 460.071 262.23L454.954 272.111ZM466.519 276.787C470.071 277.762 473.314 278.43 476.209 278.734L477.374 267.668C475.26 267.445 472.637 266.927 469.465 266.056L466.519 276.787ZM476.365 278.748C478.887 278.942 480.789 279.061 481.834 279.061V267.934C481.296 267.934 479.837 267.855 477.218 267.654L476.365 278.748ZM481.834 279.061H527.016V267.934H481.834V279.061ZM532.58 273.498V157.428H521.452V273.498H532.58ZM527.016 162.992H552.721V151.864H527.016V162.992ZM547.158 157.428V286.252H558.285V157.428H547.158ZM736.495 233.061L731.945 229.859L731.939 229.868L731.933 229.876L736.495 233.061ZM717.809 248.287L720.105 253.355L720.126 253.345L720.147 253.336L717.809 248.287ZM707.132 251.747L706.041 246.291L706.031 246.293L706.021 246.295L707.132 251.747ZM697.047 252.834V247.271H682.094L693.411 257.045L697.047 252.834ZM750.732 299.203V304.767H765.686L754.369 294.993L750.732 299.203ZM710.988 299.203L707.347 303.41L708.915 304.767H710.988V299.203ZM657.402 252.834L661.042 248.627L659.475 247.271H657.402V252.834ZM638.914 252.834H633.35V258.398H638.914V252.834ZM638.914 227.129V221.565H633.35V227.129H638.914ZM697.047 227.129V232.693H697.274L697.5 232.674L697.047 227.129ZM705.847 225.152L707.913 230.318L707.945 230.305L707.978 230.291L705.847 225.152ZM712.767 220.703L708.971 216.635L708.937 216.667L708.903 216.7L712.767 220.703ZM717.315 214.079L722.463 216.19L722.472 216.168L722.481 216.145L717.315 214.079ZM718.304 185.605L713.168 187.745L713.28 188.014L713.419 188.269L718.304 185.605ZM716.92 183.924L713.581 188.375L713.885 188.603L714.218 188.788L716.92 183.924ZM715.14 183.232L714.526 188.762L714.556 188.765L714.586 188.768L715.14 183.232ZM628.631 183.133V177.57H623.068V183.133H628.631ZM628.631 299.203V304.767H634.195V299.203H628.631ZM602.926 299.203H597.362V304.767H602.926V299.203ZM603.915 165.337L609.05 167.477L603.915 165.337ZM606.584 161.185L602.65 157.251L602.594 157.307L602.539 157.365L606.584 161.185ZM727.993 160.592L725.375 165.501L725.407 165.518L725.439 165.535L727.993 160.592ZM737.583 168.402L733.176 171.799L733.216 171.85L733.256 171.9L737.583 168.402ZM742.922 178.486L737.579 180.041L737.592 180.085L737.606 180.129L742.922 178.486ZM739.039 205.082C739.039 210.498 738.368 215.16 737.12 219.133L747.735 222.47C749.386 217.216 750.166 211.398 750.166 205.082H739.039ZM737.12 219.133C735.823 223.26 734.085 226.818 731.945 229.859L741.045 236.263C743.915 232.186 746.132 227.571 747.735 222.47L737.12 219.133ZM731.933 229.876C729.802 232.93 727.351 235.515 724.583 237.661L731.402 246.455C735.094 243.592 738.311 240.179 741.057 236.246L731.933 229.876ZM724.583 237.661C721.671 239.92 718.635 241.773 715.472 243.238L720.147 253.336C724.103 251.504 727.855 249.206 731.402 246.455L724.583 237.661ZM715.514 243.218C712.392 244.632 709.236 245.652 706.041 246.291L708.223 257.203C712.278 256.392 716.24 255.105 720.105 253.355L715.514 243.218ZM706.021 246.295C702.775 246.956 699.788 247.271 697.047 247.271V258.398C700.634 258.398 704.37 257.988 708.242 257.199L706.021 246.295ZM693.411 257.045L747.095 303.414L754.369 294.993L700.684 248.624L693.411 257.045ZM750.732 293.639H710.988V304.767H750.732V293.639ZM714.628 294.996L661.042 248.627L653.761 257.042L707.347 303.41L714.628 294.996ZM657.402 247.271H638.914V258.398H657.402V247.271ZM644.477 252.834V227.129H633.35V252.834H644.477ZM638.914 232.693H697.047V221.565H638.914V232.693ZM697.5 232.674C701.207 232.372 704.694 231.605 707.913 230.318L703.78 219.986C701.727 220.807 699.347 221.359 696.595 221.584L697.5 232.674ZM707.978 230.291C711.259 228.931 714.171 227.082 716.632 224.705L708.903 216.7C707.541 218.015 705.839 219.132 703.716 220.012L707.978 230.291ZM716.563 224.77C719.143 222.363 721.112 219.482 722.463 216.19L712.168 211.967C711.409 213.817 710.346 215.352 708.971 216.635L716.563 224.77ZM722.481 216.145C723.842 212.742 724.461 209.023 724.461 205.082H713.333C713.333 207.863 712.897 210.142 712.149 212.012L722.481 216.145ZM724.461 205.082V188.868H713.333V205.082H724.461ZM724.461 188.868C724.461 187.094 724.25 184.888 723.188 182.941L713.419 188.269C713.333 188.111 713.291 187.995 713.276 187.947C713.26 187.899 713.264 187.899 713.275 187.96C713.299 188.092 713.333 188.38 713.333 188.868H724.461ZM723.44 183.465C722.757 181.827 721.57 180.143 719.622 179.061L714.218 188.788C713.456 188.364 713.191 187.801 713.168 187.745L723.44 183.465ZM720.258 179.473C718.914 178.466 717.357 177.862 715.694 177.696L714.586 188.768C714.435 188.753 714.254 188.715 714.063 188.64C713.871 188.565 713.708 188.47 713.581 188.375L720.258 179.473ZM715.754 177.702C714.983 177.617 714.217 177.57 713.459 177.57V188.697C713.757 188.697 714.11 188.716 714.526 188.762L715.754 177.702ZM713.459 177.57H628.631V188.697H713.459V177.57ZM623.068 183.133V299.203H634.195V183.133H623.068ZM628.631 293.639H602.926V304.767H628.631V293.639ZM608.49 299.203V170.379H597.362V299.203H608.49ZM608.49 170.379C608.49 169.306 608.685 168.355 609.05 167.477L598.779 163.197C597.826 165.483 597.362 167.894 597.362 170.379H608.49ZM609.05 167.477C609.464 166.485 609.994 165.678 610.629 165.005L602.539 157.365C600.933 159.065 599.684 161.025 598.779 163.197L609.05 167.477ZM610.518 165.119C611.18 164.458 611.951 163.938 612.876 163.552L608.597 153.281C606.359 154.213 604.361 155.539 602.65 157.251L610.518 165.119ZM612.876 163.552C613.729 163.197 614.71 162.992 615.878 162.992V151.864C613.355 151.864 610.907 152.318 608.597 153.281L612.876 163.552ZM615.878 162.992H713.459V151.864H615.878V162.992ZM713.459 162.992C718.529 162.992 722.42 163.925 725.375 165.501L730.611 155.682C725.657 153.04 719.858 151.864 713.459 151.864V162.992ZM725.439 165.535C728.754 167.247 731.289 169.35 733.176 171.799L741.989 165.005C738.999 161.127 735.141 158.022 730.547 155.649L725.439 165.535ZM733.256 171.9C735.323 174.456 736.742 177.163 737.579 180.041L748.264 176.932C746.992 172.56 744.852 168.544 741.909 164.904L733.256 171.9ZM737.606 180.129C738.594 183.325 739.039 186.161 739.039 188.67H750.166C750.166 184.851 749.491 180.898 748.237 176.843L737.606 180.129ZM739.039 188.67V205.082H750.166V188.67H739.039ZM816.558 215.364H810.994V220.928H816.558V215.364ZM906.823 215.364V220.928H912.387V215.364H906.823ZM906.823 157.428V151.864H901.26V157.428H906.823ZM932.529 157.428H938.093V151.864H932.529V157.428ZM932.529 299.203V304.767H938.093V299.203H932.529ZM906.823 299.203H901.26V304.767H906.823V299.203ZM906.823 241.267H912.387V235.703H906.823V241.267ZM816.558 241.267V235.703H810.994V241.267H816.558ZM816.558 299.203V304.767H822.122V299.203H816.558ZM790.852 299.203H785.289V304.767H790.852V299.203ZM790.852 157.428V151.864H785.289V157.428H790.852ZM816.558 157.428H822.122V151.864H816.558V157.428ZM816.558 220.928H906.823V209.8H816.558V220.928ZM912.387 215.364V157.428H901.26V215.364H912.387ZM906.823 162.992H932.529V151.864H906.823V162.992ZM926.965 157.428V299.203H938.093V157.428H926.965ZM932.529 293.639H906.823V304.767H932.529V293.639ZM912.387 299.203V241.267H901.26V299.203H912.387ZM906.823 235.703H816.558V246.831H906.823V235.703ZM810.994 241.267V299.203H822.122V241.267H810.994ZM816.558 293.639H790.852V304.767H816.558V293.639ZM796.416 299.203V157.428H785.289V299.203H796.416ZM790.852 162.992H816.558V151.864H790.852V162.992ZM810.994 157.428V215.364H822.122V157.428H810.994ZM1122.04 299.203V304.767H1127.6V299.203H1122.04ZM1096.33 299.203H1090.77V304.767H1096.33V299.203ZM1096.33 264.402H1101.9V258.838H1096.33V264.402ZM1005.97 264.402V258.838H1000.4V264.402H1005.97ZM1005.97 299.203V304.767H1011.53V299.203H1005.97ZM980.262 299.203H974.698V304.767H980.262V299.203ZM1000.43 177.3L996.517 173.345L1000.43 177.3ZM1005.97 238.697H1000.4V244.26H1005.97V238.697ZM1096.33 238.697V244.26H1101.9V238.697H1096.33ZM1096.33 183.133H1101.9V177.57H1096.33V183.133ZM1046.11 183.529L1046.55 189.075L1046.61 189.07L1046.67 189.063L1046.11 183.529ZM1037.31 185.209L1035.84 179.844L1035.82 179.848L1035.81 179.852L1037.31 185.209ZM1016.64 197.37L1012.55 193.6L1016.64 197.37ZM1008.93 210.025L1003.77 207.947L1003.77 207.965L1003.76 207.982L1008.93 210.025ZM1122.04 293.639H1096.33V304.767H1122.04V293.639ZM1101.9 299.203V264.402H1090.77V299.203H1101.9ZM1096.33 258.838H1005.97V269.966H1096.33V258.838ZM1000.4 264.402V299.203H1011.53V264.402H1000.4ZM1005.97 293.639H980.262V304.767H1005.97V293.639ZM985.826 299.203V228.315H974.698V299.203H985.826ZM985.826 228.315C985.826 218.617 987.491 209.817 990.75 201.85L980.451 197.636C976.592 207.07 974.698 217.318 974.698 228.315H985.826ZM990.75 201.85C994.042 193.803 998.578 186.961 1004.34 181.255L996.517 173.345C989.628 180.163 984.278 188.283 980.451 197.636L990.75 201.85ZM1004.34 181.255C1010.12 175.535 1016.98 171.056 1024.96 167.825L1020.79 157.51C1011.5 161.267 1003.39 166.542 996.517 173.345L1004.34 181.255ZM1024.96 167.825C1032.87 164.625 1041.58 162.992 1051.15 162.992V151.864C1040.29 151.864 1030.15 153.724 1020.79 157.51L1024.96 167.825ZM1051.15 162.992H1109.09V151.864H1051.15V162.992ZM1109.09 162.992C1110.16 162.992 1111.11 163.187 1111.99 163.552L1116.27 153.281C1113.98 152.328 1111.57 151.864 1109.09 151.864V162.992ZM1111.99 163.552C1112.91 163.938 1113.68 164.458 1114.35 165.119L1122.21 157.251C1120.5 155.539 1118.51 154.213 1116.27 153.281L1111.99 163.552ZM1114.35 165.119C1115.01 165.78 1115.53 166.551 1115.91 167.477L1126.18 163.197C1125.25 160.959 1123.93 158.962 1122.21 157.251L1114.35 165.119ZM1115.91 167.477C1116.28 168.355 1116.47 169.306 1116.47 170.379H1127.6C1127.6 167.894 1127.14 165.483 1126.18 163.197L1115.91 167.477ZM1116.47 170.379V299.203H1127.6V170.379H1116.47ZM1005.97 244.26H1096.33V233.133H1005.97V244.26ZM1101.9 238.697V183.133H1090.77V238.697H1101.9ZM1096.33 177.57H1051.15V188.697H1096.33V177.57ZM1051.15 177.57C1050.02 177.57 1048.04 177.737 1045.54 177.994L1046.67 189.063C1049.31 188.793 1050.7 188.697 1051.15 188.697V177.57ZM1045.67 177.982C1042.71 178.216 1039.42 178.861 1035.84 179.844L1038.78 190.575C1041.92 189.712 1044.5 189.237 1046.55 189.075L1045.67 177.982ZM1035.81 179.852C1032.08 180.896 1028.23 182.47 1024.27 184.52L1029.39 194.401C1032.81 192.629 1035.95 191.368 1038.81 190.567L1035.81 179.852ZM1024.27 184.52C1019.95 186.758 1016.05 189.809 1012.55 193.6L1020.74 201.141C1023.44 198.208 1026.33 195.987 1029.39 194.401L1024.27 184.52ZM1012.55 193.6C1008.92 197.543 1006.02 202.368 1003.77 207.947L1014.09 212.103C1015.93 207.532 1018.17 203.92 1020.74 201.141L1012.55 193.6ZM1003.76 207.982C1001.45 213.819 1000.4 220.652 1000.4 228.315H1011.53C1011.53 221.61 1012.46 216.249 1014.11 212.068L1003.76 207.982ZM1000.4 228.315V238.697H1011.53V228.315H1000.4ZM1299.19 299.203V304.767H1304.75V299.203H1299.19ZM1198.74 298.412L1197.55 303.847L1197.62 303.863L1197.7 303.878L1198.74 298.412ZM1190.63 295.743L1188.35 300.816L1188.37 300.827L1188.39 300.837L1190.63 295.743ZM1183.02 291.195L1179.59 295.574L1179.62 295.603L1179.66 295.631L1183.02 291.195ZM1176.49 284.373L1171.9 287.511L1171.94 287.575L1171.99 287.639L1176.49 284.373ZM1172.04 275.08L1166.74 276.75L1166.74 276.765L1166.75 276.779L1172.04 275.08ZM1171.15 185.902L1165.71 184.736L1165.7 184.786L1165.69 184.836L1171.15 185.902ZM1173.82 177.794L1178.9 180.078L1178.91 180.054L1178.92 180.031L1173.82 177.794ZM1178.47 170.083L1182.85 173.515L1178.47 170.083ZM1185.29 163.656L1188.48 168.214L1188.49 168.207L1188.51 168.199L1185.29 163.656ZM1299.19 157.428H1304.75V151.864H1299.19V157.428ZM1299.19 183.133V188.697H1304.75V183.133H1299.19ZM1198.74 270.828L1194.73 274.69L1194.8 274.763L1194.88 274.833L1198.74 270.828ZM1299.19 273.498H1304.75V267.934H1299.19V273.498ZM1299.19 293.639H1206.45V304.767H1299.19V293.639ZM1206.45 293.639C1204.48 293.639 1202.27 293.42 1199.78 292.947L1197.7 303.878C1200.75 304.459 1203.67 304.767 1206.45 304.767V293.639ZM1199.93 292.978C1197.61 292.468 1195.26 291.697 1192.87 290.648L1188.39 300.837C1191.41 302.161 1194.46 303.17 1197.55 303.847L1199.93 292.978ZM1192.91 290.669C1190.68 289.664 1188.5 288.366 1186.38 286.758L1179.66 295.631C1182.41 297.714 1185.31 299.449 1188.35 300.816L1192.91 290.669ZM1186.45 286.816C1184.44 285.24 1182.62 283.346 1181 281.107L1171.99 287.639C1174.19 290.673 1176.72 293.327 1179.59 295.574L1186.45 286.816ZM1181.09 281.235C1179.58 279.026 1178.32 276.424 1177.34 273.38L1166.75 276.779C1168.01 280.722 1169.72 284.315 1171.9 287.511L1181.09 281.235ZM1177.35 273.409C1176.43 270.479 1175.93 267.067 1175.93 263.117H1164.8C1164.8 267.998 1165.42 272.562 1166.74 276.75L1177.35 273.409ZM1175.93 263.117V193.514H1164.8V263.117H1175.93ZM1175.93 193.514C1175.93 191.551 1176.15 189.373 1176.62 186.967L1165.69 184.836C1165.11 187.835 1164.8 190.732 1164.8 193.514H1175.93ZM1176.59 187.067C1177.1 184.691 1177.87 182.363 1178.9 180.078L1168.75 175.511C1167.41 178.499 1166.39 181.575 1165.71 184.736L1176.59 187.067ZM1178.92 180.031C1179.91 177.776 1181.21 175.605 1182.85 173.515L1174.09 166.651C1171.91 169.438 1170.11 172.408 1168.73 175.558L1178.92 180.031ZM1182.85 173.515C1184.41 171.525 1186.28 169.758 1188.48 168.214L1182.1 159.098C1179.03 161.246 1176.35 163.764 1174.09 166.651L1182.85 173.515ZM1188.51 168.199C1190.7 166.648 1193.27 165.372 1196.29 164.406L1192.89 153.811C1188.91 155.086 1185.29 156.842 1182.08 159.114L1188.51 168.199ZM1196.29 164.406C1199.13 163.494 1202.5 162.992 1206.45 162.992V151.864C1201.57 151.864 1197.03 152.482 1192.89 153.811L1196.29 164.406ZM1206.45 162.992H1299.19V151.864H1206.45V162.992ZM1293.62 157.428V183.133H1304.75V157.428H1293.62ZM1299.19 177.57H1206.45V188.697H1299.19V177.57ZM1206.45 177.57C1202.12 177.57 1197.94 178.732 1194.8 181.868L1202.67 189.737C1203.1 189.314 1204.05 188.697 1206.45 188.697V177.57ZM1194.8 181.868C1191.63 185.042 1190.51 189.326 1190.51 193.712H1201.63C1201.63 191.111 1202.29 190.123 1202.67 189.737L1194.8 181.868ZM1190.51 193.712V263.117H1201.63V193.712H1190.51ZM1190.51 263.117C1190.51 267.425 1191.69 271.536 1194.73 274.69L1202.74 266.966C1202.23 266.43 1201.63 265.4 1201.63 263.117H1190.51ZM1194.88 274.833C1198.03 277.875 1202.14 279.061 1206.45 279.061V267.934C1204.17 267.934 1203.14 267.341 1202.6 266.823L1194.88 274.833ZM1206.45 279.061H1299.19V267.934H1206.45V279.061ZM1293.62 273.498V299.203H1304.75V273.498H1293.62ZM1492.35 299.203V304.767H1506.05L1496.23 295.215L1492.35 299.203ZM1455.87 299.203L1451.93 303.134L1453.56 304.767H1455.87V299.203ZM1398.03 241.267L1401.97 237.336L1400.34 235.703H1398.03V241.267ZM1379.94 241.267H1374.38V246.831H1379.94V241.267ZM1379.94 215.364V209.8H1374.38V215.364H1379.94ZM1398.03 215.364V220.928H1400.34L1401.97 219.295L1398.03 215.364ZM1455.87 157.428V151.864H1453.56L1451.93 153.497L1455.87 157.428ZM1492.35 157.428L1496.23 161.416L1506.05 151.864H1492.35V157.428ZM1419.49 228.315L1415.61 224.328L1411.51 228.315L1415.61 232.303L1419.49 228.315ZM1369.66 299.203V304.767H1375.22V299.203H1369.66ZM1343.95 299.203H1338.39V304.767H1343.95V299.203ZM1343.95 157.428V151.864H1338.39V157.428H1343.95ZM1369.66 157.428H1375.22V151.864H1369.66V157.428ZM1492.35 293.639H1455.87V304.767H1492.35V293.639ZM1459.81 295.272L1401.97 237.336L1394.1 245.198L1451.93 303.134L1459.81 295.272ZM1398.03 235.703H1379.94V246.831H1398.03V235.703ZM1385.51 241.267V215.364H1374.38V241.267H1385.51ZM1379.94 220.928H1398.03V209.8H1379.94V220.928ZM1401.97 219.295L1459.81 161.359L1451.93 153.497L1394.1 211.433L1401.97 219.295ZM1455.87 162.992H1492.35V151.864H1455.87V162.992ZM1488.47 153.44L1415.61 224.328L1423.37 232.303L1496.23 161.416L1488.47 153.44ZM1415.61 232.303L1488.47 303.191L1496.23 295.215L1423.37 224.328L1415.61 232.303ZM1369.66 293.639H1343.95V304.767H1369.66V293.639ZM1349.52 299.203V157.428H1338.39V299.203H1349.52ZM1343.95 162.992H1369.66V151.864H1343.95V162.992ZM1364.1 157.428V299.203H1375.22V157.428H1364.1Z" fill="url(#paint1_linear_351_18549)"/>
<path d="M384.35 222.367C384.35 231.002 382.834 238.944 379.802 246.194C376.836 253.444 372.717 259.706 367.444 264.979C362.171 270.186 355.909 274.272 348.659 277.238C341.409 280.204 333.533 281.688 325.03 281.688H255.625C253.78 281.688 252.066 281.358 250.484 280.699C248.902 280.04 247.518 279.15 246.332 278.029C245.211 276.843 244.322 275.459 243.662 273.877C243.003 272.295 242.674 270.581 242.674 268.736V152.864C242.674 151.084 243.003 149.403 243.662 147.822C244.322 146.24 245.211 144.856 246.332 143.669C247.518 142.483 248.902 141.56 250.484 140.901C252.066 140.242 253.78 139.912 255.625 139.912H325.03C333.533 139.912 341.409 141.395 348.659 144.361C355.909 147.327 362.171 151.447 367.444 156.72C372.717 161.927 376.836 168.188 379.802 175.504C382.834 182.755 384.35 190.664 384.35 199.232V222.367ZM358.645 199.232C358.645 194.223 357.821 189.642 356.173 185.49C354.591 181.337 352.317 177.811 349.351 174.911C346.385 171.945 342.826 169.671 338.674 168.089C334.587 166.442 330.039 165.618 325.03 165.618H268.379V255.982H325.03C330.039 255.982 334.587 255.191 338.674 253.609C342.826 251.961 346.385 249.688 349.351 246.787C352.317 243.821 354.591 240.295 356.173 236.209C357.821 232.056 358.645 227.442 358.645 222.367V199.232ZM568.717 268.736C568.717 270.581 568.388 272.295 567.729 273.877C567.07 275.459 566.147 276.843 564.96 278.029C563.774 279.15 562.39 280.04 560.808 280.699C559.226 281.358 557.545 281.688 555.766 281.688H497.83C492.359 281.688 486.823 281.094 481.22 279.908C475.618 278.721 470.18 276.909 464.907 274.47C459.7 271.966 454.79 268.802 450.176 264.979C445.562 261.156 441.509 256.641 438.015 251.434C434.588 246.161 431.885 240.163 429.908 233.44C427.931 226.652 426.942 219.105 426.942 210.8V139.912H452.648V210.8C452.648 218.05 453.636 224.18 455.614 229.189C457.657 234.198 460.227 238.384 463.325 241.745C466.423 245.107 469.817 247.743 473.508 249.655C477.2 251.566 480.693 252.983 483.988 253.906C487.35 254.829 490.283 255.422 492.788 255.685C495.358 255.883 497.039 255.982 497.83 255.982H543.012V139.912H568.717V268.736ZM760.599 187.566C760.599 193.432 759.874 198.672 758.423 203.286C756.973 207.9 754.996 211.986 752.491 215.545C750.053 219.039 747.219 222.038 743.989 224.542C740.759 227.047 737.365 229.123 733.806 230.771C730.312 232.353 726.753 233.506 723.128 234.231C719.569 234.956 716.207 235.319 713.043 235.319L766.728 281.688H726.984L673.398 235.319H654.91V209.613H713.043C716.273 209.35 719.206 208.691 721.843 207.636C724.545 206.516 726.852 205.033 728.763 203.187C730.741 201.342 732.257 199.134 733.311 196.563C734.366 193.927 734.893 190.928 734.893 187.566V171.352C734.893 169.902 734.695 168.814 734.3 168.089C733.97 167.298 733.509 166.738 732.916 166.409C732.388 166.013 731.795 165.782 731.136 165.716C730.543 165.651 729.983 165.618 729.455 165.618H644.628V281.688H618.922V152.864C618.922 151.084 619.252 149.403 619.911 147.822C620.57 146.24 621.46 144.856 622.58 143.669C623.767 142.483 625.151 141.56 626.733 140.901C628.314 140.242 630.028 139.912 631.874 139.912H729.455C735.19 139.912 740.034 140.967 743.989 143.076C747.944 145.119 751.14 147.723 753.579 150.886C756.084 153.984 757.863 157.346 758.918 160.971C760.038 164.596 760.599 167.99 760.599 171.154V187.566ZM832.554 197.848H922.82V139.912H948.525V281.688H922.82V223.751H832.554V281.688H806.849V139.912H832.554V197.848ZM1138.03 281.688H1112.33V246.886H1021.96V281.688H996.258V210.8C996.258 200.452 998.038 190.928 1001.6 182.227C1005.16 173.527 1010.1 166.046 1016.43 159.784C1022.75 153.523 1030.24 148.645 1038.87 145.152C1047.5 141.659 1056.93 139.912 1067.15 139.912H1125.08C1126.86 139.912 1128.54 140.242 1130.12 140.901C1131.71 141.56 1133.09 142.483 1134.28 143.669C1135.46 144.856 1136.39 146.24 1137.04 147.822C1137.7 149.403 1138.03 151.084 1138.03 152.864V281.688ZM1021.96 221.181H1112.33V165.618H1067.15C1066.35 165.618 1064.67 165.749 1062.1 166.013C1059.6 166.211 1056.67 166.771 1053.3 167.694C1050.01 168.617 1046.52 170.034 1042.82 171.945C1039.13 173.857 1035.74 176.493 1032.64 179.854C1029.54 183.216 1026.97 187.434 1024.93 192.509C1022.95 197.519 1021.96 203.616 1021.96 210.8V221.181ZM1315.18 281.688H1222.45C1220.07 281.688 1217.5 281.424 1214.73 280.897C1212.03 280.303 1209.33 279.414 1206.63 278.227C1203.99 277.041 1201.45 275.525 1199.01 273.679C1196.58 271.768 1194.4 269.494 1192.49 266.857C1190.64 264.155 1189.16 261.057 1188.04 257.564C1186.92 254.005 1186.36 250.017 1186.36 245.601V175.999C1186.36 173.626 1186.62 171.088 1187.15 168.386C1187.74 165.618 1188.63 162.915 1189.82 160.279C1191.01 157.576 1192.56 155.006 1194.47 152.567C1196.38 150.128 1198.65 147.986 1201.29 146.141C1203.99 144.229 1207.09 142.713 1210.58 141.593C1214.08 140.472 1218.03 139.912 1222.45 139.912H1315.18V165.618H1222.45C1219.08 165.618 1216.51 166.507 1214.73 168.287C1212.95 170.067 1212.06 172.703 1212.06 176.196V245.601C1212.06 248.897 1212.95 251.467 1214.73 253.313C1216.58 255.092 1219.15 255.982 1222.45 255.982H1315.18V281.688ZM1508.35 281.688H1471.87L1414.03 223.751H1395.94V197.848H1414.03L1471.87 139.912H1508.35L1435.48 210.8L1508.35 281.688ZM1385.66 281.688H1359.95V139.912H1385.66V281.688Z" fill="white"/>
<path d="M379.802 246.194L374.669 244.048L374.661 244.068L374.653 244.088L379.802 246.194ZM367.444 264.979L371.353 268.938L371.366 268.926L371.378 268.913L367.444 264.979ZM250.484 280.699L248.344 285.835L250.484 280.699ZM246.332 278.029L242.287 281.85L242.396 281.965L242.512 282.074L246.332 278.029ZM243.662 273.877L248.798 271.737L243.662 273.877ZM243.662 147.822L248.798 149.961L243.662 147.822ZM246.332 143.669L242.398 139.735L242.341 139.791L242.287 139.849L246.332 143.669ZM367.444 156.72L363.51 160.654L363.522 160.666L363.535 160.678L367.444 156.72ZM379.802 175.504L374.646 177.595L374.658 177.623L374.669 177.651L379.802 175.504ZM356.173 185.49L350.974 187.471L350.987 187.506L351.002 187.542L356.173 185.49ZM349.351 174.911L345.417 178.845L345.439 178.867L345.462 178.889L349.351 174.911ZM338.674 168.089L336.593 173.249L336.643 173.269L336.693 173.289L338.674 168.089ZM268.379 165.618V160.054H262.815V165.618H268.379ZM268.379 255.982H262.815V261.546H268.379V255.982ZM338.674 253.609L340.682 258.798L340.704 258.789L340.726 258.781L338.674 253.609ZM349.351 246.787L353.241 250.766L353.263 250.744L353.285 250.722L349.351 246.787ZM356.173 236.209L351.002 234.157L350.993 234.178L350.985 234.2L356.173 236.209ZM378.786 222.367C378.786 230.338 377.39 237.542 374.669 244.048L384.935 248.341C388.278 240.346 389.914 231.666 389.914 222.367H378.786ZM374.653 244.088C371.952 250.689 368.234 256.321 363.51 261.045L371.378 268.913C377.2 263.092 381.72 256.2 384.952 248.301L374.653 244.088ZM363.535 261.02C358.808 265.688 353.169 269.382 346.553 272.089L350.766 282.388C358.65 279.163 365.534 274.684 371.353 268.938L363.535 261.02ZM346.553 272.089C340.026 274.759 332.872 276.124 325.03 276.124V287.251C334.193 287.251 342.792 285.65 350.766 282.388L346.553 272.089ZM325.03 276.124H255.625V287.251H325.03V276.124ZM255.625 276.124C254.457 276.124 253.477 275.919 252.624 275.563L248.344 285.835C250.655 286.797 253.102 287.251 255.625 287.251V276.124ZM252.624 275.563C251.632 275.15 250.825 274.62 250.152 273.985L242.512 282.074C244.212 283.68 246.173 284.93 248.344 285.835L252.624 275.563ZM250.377 274.209C249.741 273.537 249.211 272.729 248.798 271.737L238.527 276.017C239.432 278.189 240.681 280.149 242.287 281.85L250.377 274.209ZM248.798 271.737C248.443 270.884 248.237 269.904 248.237 268.736H237.11C237.11 271.259 237.564 273.706 238.527 276.017L248.798 271.737ZM248.237 268.736V152.864H237.11V268.736H248.237ZM248.237 152.864C248.237 151.79 248.432 150.839 248.798 149.961L238.527 145.682C237.574 147.968 237.11 150.378 237.11 152.864H248.237ZM248.798 149.961C249.211 148.97 249.741 148.162 250.377 147.489L242.287 139.849C240.681 141.549 239.432 143.51 238.527 145.682L248.798 149.961ZM250.266 147.603C250.927 146.942 251.698 146.422 252.624 146.037L248.344 135.765C246.106 136.698 244.109 138.024 242.398 139.735L250.266 147.603ZM252.624 146.037C253.477 145.681 254.457 145.476 255.625 145.476V134.348C253.102 134.348 250.655 134.802 248.344 135.765L252.624 146.037ZM255.625 145.476H325.03V134.348H255.625V145.476ZM325.03 145.476C332.872 145.476 340.026 146.841 346.553 149.511L350.766 139.212C342.792 135.95 334.193 134.348 325.03 134.348V145.476ZM346.553 149.511C353.154 152.211 358.785 155.929 363.51 160.654L371.378 152.785C365.557 146.964 358.665 142.443 350.766 139.212L346.553 149.511ZM363.535 160.678C368.235 165.32 371.946 170.933 374.646 177.595L384.958 173.414C381.727 165.443 377.199 158.533 371.353 152.761L363.535 160.678ZM374.669 177.651C377.392 184.162 378.786 191.334 378.786 199.232H389.914C389.914 189.994 388.276 181.347 384.935 173.358L374.669 177.651ZM378.786 199.232V222.367H389.914V199.232H378.786ZM364.209 199.232C364.209 193.605 363.281 188.318 361.345 183.438L351.002 187.542C352.361 190.967 353.081 194.841 353.081 199.232H364.209ZM361.372 183.509C359.524 178.659 356.823 174.436 353.241 170.933L345.462 178.889C347.811 181.187 349.658 184.016 350.974 187.471L361.372 183.509ZM353.285 170.977C349.732 167.424 345.495 164.734 340.654 162.89L336.693 173.289C340.157 174.608 343.038 176.467 345.417 178.845L353.285 170.977ZM340.754 162.929C335.922 160.981 330.655 160.054 325.03 160.054V171.181C329.423 171.181 333.252 171.902 336.593 173.249L340.754 162.929ZM325.03 160.054H268.379V171.181H325.03V160.054ZM262.815 165.618V255.982H273.943V165.618H262.815ZM268.379 261.546H325.03V250.418H268.379V261.546ZM325.03 261.546C330.629 261.546 335.87 260.661 340.682 258.798L336.665 248.421C333.304 249.722 329.45 250.418 325.03 250.418V261.546ZM340.726 258.781C345.51 256.882 349.708 254.22 353.241 250.766L345.462 242.809C343.062 245.155 340.142 247.041 336.621 248.438L340.726 258.781ZM353.285 250.722C356.823 247.184 359.513 242.993 361.362 238.217L350.985 234.2C349.669 237.597 347.811 240.459 345.417 242.853L353.285 250.722ZM361.345 238.261C363.284 233.373 364.209 228.05 364.209 222.367H353.081C353.081 226.835 352.357 230.74 351.002 234.157L361.345 238.261ZM364.209 222.367V199.232H353.081V222.367H364.209ZM564.96 278.029L568.781 282.074L568.838 282.02L568.895 281.964L564.96 278.029ZM464.907 274.47L462.495 279.484L462.533 279.502L462.572 279.52L464.907 274.47ZM450.176 264.979L446.626 269.263L450.176 264.979ZM438.015 251.434L433.35 254.466L433.372 254.5L433.395 254.534L438.015 251.434ZM429.908 233.44L424.566 234.996L424.568 235.003L424.57 235.01L429.908 233.44ZM426.942 139.912V134.348H421.378V139.912H426.942ZM452.648 139.912H458.211V134.348H452.648V139.912ZM455.614 229.189L450.438 231.232L450.45 231.261L450.462 231.29L455.614 229.189ZM463.325 241.745L459.234 245.516L463.325 241.745ZM483.988 253.906L482.488 259.264L482.502 259.267L482.516 259.271L483.988 253.906ZM492.788 255.685L492.205 261.219L492.283 261.227L492.361 261.233L492.788 255.685ZM543.012 255.982V261.546H548.576V255.982H543.012ZM543.012 139.912V134.348H537.448V139.912H543.012ZM568.717 139.912H574.281V134.348H568.717V139.912ZM563.154 268.736C563.154 269.904 562.948 270.884 562.593 271.737L572.865 276.017C573.827 273.706 574.281 271.259 574.281 268.736H563.154ZM562.593 271.737C562.207 272.663 561.688 273.434 561.026 274.095L568.895 281.964C570.606 280.252 571.932 278.255 572.865 276.017L562.593 271.737ZM561.14 273.985C560.468 274.62 559.66 275.15 558.668 275.563L562.948 285.835C565.12 284.93 567.081 283.68 568.781 282.074L561.14 273.985ZM558.668 275.563C557.79 275.929 556.84 276.124 555.766 276.124V287.251C558.251 287.251 560.662 286.787 562.948 285.835L558.668 275.563ZM555.766 276.124H497.83V287.251H555.766V276.124ZM497.83 276.124C492.764 276.124 487.614 275.575 482.373 274.465L480.067 285.351C486.031 286.614 491.954 287.251 497.83 287.251V276.124ZM482.373 274.465C477.184 273.366 472.143 271.687 467.243 269.42L462.572 279.52C468.217 282.131 474.051 284.077 480.067 285.351L482.373 274.465ZM467.319 269.456C462.534 267.155 458.004 264.24 453.726 260.695L446.626 269.263C451.575 273.364 456.866 276.776 462.495 279.484L467.319 269.456ZM453.726 260.695C449.543 257.229 445.845 253.118 442.636 248.334L433.395 254.534C437.172 260.164 441.582 265.083 446.626 269.263L453.726 260.695ZM442.68 248.402C439.578 243.63 437.088 238.134 435.246 231.87L424.57 235.01C426.683 242.192 429.598 248.693 433.35 254.466L442.68 248.402ZM435.25 231.885C433.443 225.68 432.506 218.667 432.506 210.8H421.378C421.378 219.542 422.419 227.623 424.566 234.996L435.25 231.885ZM432.506 210.8V139.912H421.378V210.8H432.506ZM426.942 145.476H452.648V134.348H426.942V145.476ZM447.084 139.912V210.8H458.211V139.912H447.084ZM447.084 210.8C447.084 218.522 448.132 225.39 450.438 231.232L460.789 227.146C459.14 222.97 458.211 217.578 458.211 210.8H447.084ZM450.462 231.29C452.711 236.805 455.611 241.585 459.234 245.516L467.417 237.975C464.843 235.182 462.603 231.592 460.765 227.088L450.462 231.29ZM459.234 245.516C462.727 249.306 466.629 252.358 470.95 254.595L476.067 244.714C473.006 243.129 470.119 240.907 467.417 237.975L459.234 245.516ZM470.95 254.595C474.909 256.646 478.759 258.219 482.488 259.264L485.489 248.548C482.627 247.747 479.49 246.486 476.067 244.714L470.95 254.595ZM482.516 259.271C486.067 260.246 489.31 260.914 492.205 261.219L493.37 250.152C491.256 249.93 488.633 249.411 485.461 248.541L482.516 259.271ZM492.361 261.233C494.883 261.427 496.785 261.546 497.83 261.546V250.418C497.292 250.418 495.834 250.34 493.214 250.138L492.361 261.233ZM497.83 261.546H543.012V250.418H497.83V261.546ZM548.576 255.982V139.912H537.448V255.982H548.576ZM543.012 145.476H568.717V134.348H543.012V145.476ZM563.154 139.912V268.736H574.281V139.912H563.154ZM752.491 215.545L747.941 212.344L747.935 212.352L747.929 212.361L752.491 215.545ZM733.806 230.771L736.101 235.839L736.122 235.83L736.143 235.82L733.806 230.771ZM723.128 234.231L722.037 228.776L722.027 228.778L722.017 228.78L723.128 234.231ZM713.043 235.319V229.755H698.09L709.407 239.529L713.043 235.319ZM766.728 281.688V287.251H781.682L770.365 277.477L766.728 281.688ZM726.984 281.688L723.343 285.895L724.911 287.251H726.984V281.688ZM673.398 235.319L677.038 231.112L675.471 229.755H673.398V235.319ZM654.91 235.319H649.346V240.883H654.91V235.319ZM654.91 209.613V204.05H649.346V209.613H654.91ZM713.043 209.613V215.177H713.27L713.496 215.159L713.043 209.613ZM721.843 207.636L723.909 212.802L723.941 212.789L723.974 212.776L721.843 207.636ZM728.763 203.187L724.967 199.12L724.933 199.152L724.899 199.185L728.763 203.187ZM733.311 196.563L738.459 198.675L738.468 198.652L738.477 198.629L733.311 196.563ZM734.3 168.089L729.164 170.229L729.276 170.498L729.416 170.754L734.3 168.089ZM732.916 166.409L729.578 170.86L729.882 171.088L730.214 171.272L732.916 166.409ZM731.136 165.716L730.522 171.246L730.552 171.25L730.583 171.253L731.136 165.716ZM644.628 165.618V160.054H639.064V165.618H644.628ZM644.628 281.688V287.251H650.191V281.688H644.628ZM618.922 281.688H613.358V287.251H618.922V281.688ZM619.911 147.822L625.047 149.961L619.911 147.822ZM622.58 143.669L618.646 139.735L618.59 139.791L618.535 139.849L622.58 143.669ZM743.989 143.076L741.371 147.985L741.403 148.002L741.435 148.019L743.989 143.076ZM753.579 150.886L749.172 154.283L749.212 154.334L749.252 154.384L753.579 150.886ZM758.918 160.971L753.576 162.525L753.588 162.57L753.602 162.614L758.918 160.971ZM755.035 187.566C755.035 192.983 754.364 197.644 753.116 201.618L763.731 204.954C765.383 199.7 766.162 193.882 766.162 187.566H755.035ZM753.116 201.618C751.819 205.745 750.081 209.302 747.941 212.344L757.041 218.747C759.911 214.67 762.128 210.055 763.731 204.954L753.116 201.618ZM747.929 212.361C745.798 215.414 743.347 217.999 740.579 220.146L747.398 228.939C751.09 226.076 754.308 222.664 757.053 218.73L747.929 212.361ZM740.579 220.146C737.667 222.404 734.631 224.258 731.468 225.722L736.143 235.82C740.099 233.989 743.851 231.69 747.398 228.939L740.579 220.146ZM731.51 225.703C728.388 227.117 725.232 228.137 722.037 228.776L724.219 239.687C728.274 238.876 732.236 237.589 736.101 235.839L731.51 225.703ZM722.017 228.78C718.771 229.441 715.784 229.755 713.043 229.755V240.883C716.63 240.883 720.366 240.472 724.238 239.683L722.017 228.78ZM709.407 239.529L763.092 285.898L770.365 277.477L716.68 231.108L709.407 239.529ZM766.728 276.124H726.984V287.251H766.728V276.124ZM730.624 277.48L677.038 231.112L669.757 239.526L723.343 285.895L730.624 277.48ZM673.398 229.755H654.91V240.883H673.398V229.755ZM660.473 235.319V209.613H649.346V235.319H660.473ZM654.91 215.177H713.043V204.05H654.91V215.177ZM713.496 215.159C717.203 214.856 720.69 214.09 723.909 212.802L719.776 202.47C717.723 203.292 715.343 203.843 712.591 204.068L713.496 215.159ZM723.974 212.776C727.255 211.415 730.167 209.566 732.628 207.19L724.899 199.185C723.537 200.499 721.835 201.616 719.712 202.497L723.974 212.776ZM732.56 207.254C735.139 204.847 737.108 201.966 738.459 198.675L728.164 194.451C727.405 196.301 726.342 197.836 724.967 199.12L732.56 207.254ZM738.477 198.629C739.838 195.227 740.457 191.508 740.457 187.566H729.329C729.329 190.347 728.894 192.626 728.145 194.497L738.477 198.629ZM740.457 187.566V171.352H729.329V187.566H740.457ZM740.457 171.352C740.457 169.578 740.246 167.372 739.184 165.425L729.416 170.754C729.329 170.595 729.287 170.48 729.272 170.432C729.256 170.383 729.26 170.383 729.271 170.444C729.295 170.576 729.329 170.864 729.329 171.352H740.457ZM739.436 165.949C738.753 164.312 737.566 162.627 735.618 161.545L730.214 171.272C729.452 170.849 729.187 170.285 729.164 170.229L739.436 165.949ZM736.254 161.958C734.911 160.95 733.353 160.347 731.69 160.18L730.583 171.253C730.431 171.237 730.251 171.199 730.059 171.124C729.867 171.05 729.704 170.955 729.578 170.86L736.254 161.958ZM731.751 160.187C730.979 160.101 730.213 160.054 729.455 160.054V171.181C729.753 171.181 730.106 171.2 730.522 171.246L731.751 160.187ZM729.455 160.054H644.628V171.181H729.455V160.054ZM639.064 165.618V281.688H650.191V165.618H639.064ZM644.628 276.124H618.922V287.251H644.628V276.124ZM624.486 281.688V152.864H613.358V281.688H624.486ZM624.486 152.864C624.486 151.79 624.681 150.839 625.047 149.961L614.775 145.682C613.822 147.968 613.358 150.378 613.358 152.864H624.486ZM625.047 149.961C625.46 148.97 625.99 148.162 626.625 147.489L618.535 139.849C616.93 141.549 615.68 143.51 614.775 145.682L625.047 149.961ZM626.514 147.603C627.176 146.942 627.947 146.422 628.872 146.037L624.593 135.765C622.355 136.698 620.357 138.024 618.646 139.735L626.514 147.603ZM628.872 146.037C629.726 145.681 630.706 145.476 631.874 145.476V134.348C629.351 134.348 626.903 134.802 624.593 135.765L628.872 146.037ZM631.874 145.476H729.455V134.348H631.874V145.476ZM729.455 145.476C734.525 145.476 738.416 146.409 741.371 147.985L746.607 138.167C741.653 135.524 735.854 134.348 729.455 134.348V145.476ZM741.435 148.019C744.75 149.732 747.285 151.834 749.172 154.283L757.986 147.49C754.996 143.611 751.137 140.507 746.543 138.133L741.435 148.019ZM749.252 154.384C751.319 156.94 752.738 159.648 753.576 162.525L764.26 159.417C762.988 155.044 760.848 151.028 757.906 147.388L749.252 154.384ZM753.602 162.614C754.59 165.809 755.035 168.645 755.035 171.154H766.162C766.162 167.335 765.487 163.383 764.233 159.328L753.602 162.614ZM755.035 171.154V187.566H766.162V171.154H755.035ZM832.554 197.848H826.99V203.412H832.554V197.848ZM922.82 197.848V203.412H928.383V197.848H922.82ZM922.82 139.912V134.348H917.256V139.912H922.82ZM948.525 139.912H954.089V134.348H948.525V139.912ZM948.525 281.688V287.251H954.089V281.688H948.525ZM922.82 281.688H917.256V287.251H922.82V281.688ZM922.82 223.751H928.383V218.188H922.82V223.751ZM832.554 223.751V218.188H826.99V223.751H832.554ZM832.554 281.688V287.251H838.118V281.688H832.554ZM806.849 281.688H801.285V287.251H806.849V281.688ZM806.849 139.912V134.348H801.285V139.912H806.849ZM832.554 139.912H838.118V134.348H832.554V139.912ZM832.554 203.412H922.82V192.285H832.554V203.412ZM928.383 197.848V139.912H917.256V197.848H928.383ZM922.82 145.476H948.525V134.348H922.82V145.476ZM942.961 139.912V281.688H954.089V139.912H942.961ZM948.525 276.124H922.82V287.251H948.525V276.124ZM928.383 281.688V223.751H917.256V281.688H928.383ZM922.82 218.188H832.554V229.315H922.82V218.188ZM826.99 223.751V281.688H838.118V223.751H826.99ZM832.554 276.124H806.849V287.251H832.554V276.124ZM812.412 281.688V139.912H801.285V281.688H812.412ZM806.849 145.476H832.554V134.348H806.849V145.476ZM826.99 139.912V197.848H838.118V139.912H826.99ZM1138.03 281.688V287.251H1143.6V281.688H1138.03ZM1112.33 281.688H1106.76V287.251H1112.33V281.688ZM1112.33 246.886H1117.89V241.323H1112.33V246.886ZM1021.96 246.886V241.323H1016.4V246.886H1021.96ZM1021.96 281.688V287.251H1027.53V281.688H1021.96ZM996.258 281.688H990.694V287.251H996.258V281.688ZM1016.43 159.784L1012.51 155.83L1016.43 159.784ZM1021.96 221.181H1016.4V226.745H1021.96V221.181ZM1112.33 221.181V226.745H1117.89V221.181H1112.33ZM1112.33 165.618H1117.89V160.054H1112.33V165.618ZM1062.1 166.013L1062.54 171.56L1062.61 171.554L1062.67 171.548L1062.1 166.013ZM1053.3 167.694L1051.83 162.329L1051.82 162.332L1051.8 162.336L1053.3 167.694ZM1032.64 179.854L1028.55 176.084L1032.64 179.854ZM1024.93 192.509L1019.77 190.432L1019.76 190.449L1019.75 190.467L1024.93 192.509ZM1138.03 276.124H1112.33V287.251H1138.03V276.124ZM1117.89 281.688V246.886H1106.76V281.688H1117.89ZM1112.33 241.323H1021.96V252.45H1112.33V241.323ZM1016.4 246.886V281.688H1027.53V246.886H1016.4ZM1021.96 276.124H996.258V287.251H1021.96V276.124ZM1001.82 281.688V210.8H990.694V281.688H1001.82ZM1001.82 210.8C1001.82 201.101 1003.49 192.301 1006.75 184.334L996.447 180.121C992.588 189.554 990.694 199.802 990.694 210.8H1001.82ZM1006.75 184.334C1010.04 176.287 1014.57 169.445 1020.34 163.739L1012.51 155.83C1005.62 162.647 1000.27 170.767 996.447 180.121L1006.75 184.334ZM1020.34 163.739C1026.12 158.019 1032.97 153.54 1040.96 150.31L1036.78 139.995C1027.5 143.751 1019.39 149.026 1012.51 155.83L1020.34 163.739ZM1040.96 150.31C1048.87 147.11 1057.58 145.476 1067.15 145.476V134.348C1056.28 134.348 1046.14 136.208 1036.78 139.995L1040.96 150.31ZM1067.15 145.476H1125.08V134.348H1067.15V145.476ZM1125.08 145.476C1126.16 145.476 1127.11 145.671 1127.98 146.037L1132.26 135.765C1129.98 134.813 1127.57 134.348 1125.08 134.348V145.476ZM1127.98 146.037C1128.91 146.422 1129.68 146.942 1130.34 147.603L1138.21 139.735C1136.5 138.024 1134.5 136.698 1132.26 135.765L1127.98 146.037ZM1130.34 147.603C1131 148.265 1131.52 149.036 1131.91 149.961L1142.18 145.682C1141.25 143.444 1139.92 141.446 1138.21 139.735L1130.34 147.603ZM1131.91 149.961C1132.27 150.839 1132.47 151.79 1132.47 152.864H1143.6C1143.6 150.378 1143.13 147.968 1142.18 145.682L1131.91 149.961ZM1132.47 152.864V281.688H1143.6V152.864H1132.47ZM1021.96 226.745H1112.33V215.617H1021.96V226.745ZM1117.89 221.181V165.618H1106.76V221.181H1117.89ZM1112.33 160.054H1067.15V171.181H1112.33V160.054ZM1067.15 160.054C1066.02 160.054 1064.04 160.221 1061.54 160.478L1062.67 171.548C1065.31 171.277 1066.69 171.181 1067.15 171.181V160.054ZM1061.67 160.467C1058.71 160.7 1055.41 161.346 1051.83 162.329L1054.78 173.059C1057.92 172.196 1060.49 171.721 1062.54 171.56L1061.67 160.467ZM1051.8 162.336C1048.07 163.38 1044.23 164.954 1040.27 167.005L1045.38 176.886C1048.81 175.113 1051.94 173.853 1054.8 173.052L1051.8 162.336ZM1040.27 167.005C1035.95 169.242 1032.04 172.294 1028.55 176.084L1036.73 183.625C1039.43 180.692 1042.32 178.471 1045.38 176.886L1040.27 167.005ZM1028.55 176.084C1024.92 180.027 1022.01 184.852 1019.77 190.432L1030.09 194.587C1031.93 190.017 1034.17 186.405 1036.73 183.625L1028.55 176.084ZM1019.75 190.467C1017.45 196.304 1016.4 203.136 1016.4 210.8H1027.53C1027.53 204.095 1028.45 198.734 1030.1 194.552L1019.75 190.467ZM1016.4 210.8V221.181H1027.53V210.8H1016.4ZM1315.18 281.688V287.251H1320.75V281.688H1315.18ZM1214.73 280.897L1213.54 286.331L1213.62 286.348L1213.69 286.362L1214.73 280.897ZM1206.63 278.227L1204.34 283.301L1204.37 283.311L1204.39 283.322L1206.63 278.227ZM1199.01 273.679L1195.58 278.058L1195.62 278.087L1195.66 278.116L1199.01 273.679ZM1192.49 266.857L1187.89 269.995L1187.94 270.06L1187.98 270.123L1192.49 266.857ZM1188.04 257.564L1182.73 259.235L1182.74 259.249L1182.74 259.263L1188.04 257.564ZM1187.15 168.386L1181.71 167.22L1181.7 167.27L1181.69 167.32L1187.15 168.386ZM1189.82 160.279L1194.89 162.562L1194.9 162.539L1194.91 162.515L1189.82 160.279ZM1194.47 152.567L1198.85 155.999L1194.47 152.567ZM1201.29 146.141L1204.48 150.699L1204.49 150.691L1204.5 150.683L1201.29 146.141ZM1315.18 139.912H1320.75V134.348H1315.18V139.912ZM1315.18 165.618V171.181H1320.75V165.618H1315.18ZM1214.73 253.313L1210.73 257.175L1210.8 257.247L1210.87 257.318L1214.73 253.313ZM1315.18 255.982H1320.75V250.418H1315.18V255.982ZM1315.18 276.124H1222.45V287.251H1315.18V276.124ZM1222.45 276.124C1220.48 276.124 1218.26 275.905 1215.78 275.431L1213.69 286.362C1216.74 286.943 1219.67 287.251 1222.45 287.251V276.124ZM1215.93 275.462C1213.61 274.953 1211.25 274.181 1208.86 273.133L1204.39 283.322C1207.41 284.646 1210.46 285.654 1213.54 286.331L1215.93 275.462ZM1208.91 273.153C1206.68 272.148 1204.5 270.851 1202.37 269.243L1195.66 278.116C1198.41 280.199 1201.31 281.933 1204.34 283.301L1208.91 273.153ZM1202.45 269.3C1200.44 267.724 1198.62 265.83 1196.99 263.592L1187.98 270.123C1190.18 273.157 1192.72 275.812 1195.58 278.058L1202.45 269.3ZM1197.08 263.72C1195.57 261.51 1194.31 258.908 1193.34 255.865L1182.74 259.263C1184.01 263.207 1185.71 266.8 1187.89 269.995L1197.08 263.72ZM1193.35 255.893C1192.42 252.963 1191.92 249.551 1191.92 245.601H1180.8C1180.8 250.483 1181.41 255.046 1182.73 259.235L1193.35 255.893ZM1191.92 245.601V175.999H1180.8V245.601H1191.92ZM1191.92 175.999C1191.92 174.035 1192.14 171.857 1192.61 169.451L1181.69 167.32C1181.1 170.319 1180.8 173.217 1180.8 175.999H1191.92ZM1192.59 169.552C1193.1 167.176 1193.87 164.848 1194.89 162.562L1184.75 157.996C1183.4 160.983 1182.39 164.059 1181.71 167.22L1192.59 169.552ZM1194.91 162.515C1195.9 160.261 1197.21 158.089 1198.85 155.999L1190.09 149.135C1187.9 151.922 1186.11 154.892 1184.73 158.042L1194.91 162.515ZM1198.85 155.999C1200.41 154.009 1202.27 152.242 1204.48 150.699L1198.1 141.583C1195.03 143.731 1192.35 146.248 1190.09 149.135L1198.85 155.999ZM1204.5 150.683C1206.69 149.133 1209.27 147.857 1212.28 146.891L1208.88 136.295C1204.91 137.57 1201.29 139.326 1198.08 141.598L1204.5 150.683ZM1212.28 146.891C1215.13 145.978 1218.49 145.476 1222.45 145.476V134.348C1217.57 134.348 1213.02 134.967 1208.88 136.295L1212.28 146.891ZM1222.45 145.476H1315.18V134.348H1222.45V145.476ZM1309.62 139.912V165.618H1320.75V139.912H1309.62ZM1315.18 160.054H1222.45V171.181H1315.18V160.054ZM1222.45 160.054C1218.12 160.054 1213.94 161.217 1210.8 164.353L1218.67 172.221C1219.09 171.798 1220.05 171.181 1222.45 171.181V160.054ZM1210.8 164.353C1207.63 167.526 1206.5 171.81 1206.5 176.196H1217.63C1217.63 173.596 1218.28 172.607 1218.67 172.221L1210.8 164.353ZM1206.5 176.196V245.601H1217.63V176.196H1206.5ZM1206.5 245.601C1206.5 249.909 1207.69 254.02 1210.73 257.175L1218.74 249.451C1218.22 248.914 1217.63 247.884 1217.63 245.601H1206.5ZM1210.87 257.318C1214.03 260.359 1218.14 261.546 1222.45 261.546V250.418C1220.16 250.418 1219.13 249.825 1218.6 249.308L1210.87 257.318ZM1222.45 261.546H1315.18V250.418H1222.45V261.546ZM1309.62 255.982V281.688H1320.75V255.982H1309.62ZM1508.35 281.688V287.251H1522.05L1512.23 277.7L1508.35 281.688ZM1471.87 281.688L1467.93 285.618L1469.56 287.251H1471.87V281.688ZM1414.03 223.751L1417.97 219.821L1416.34 218.188H1414.03V223.751ZM1395.94 223.751H1390.37V229.315H1395.94V223.751ZM1395.94 197.848V192.285H1390.37V197.848H1395.94ZM1414.03 197.848V203.412H1416.34L1417.97 201.779L1414.03 197.848ZM1471.87 139.912V134.348H1469.56L1467.93 135.981L1471.87 139.912ZM1508.35 139.912L1512.23 143.9L1522.05 134.348H1508.35V139.912ZM1435.48 210.8L1431.6 206.812L1427.51 210.8L1431.6 214.788L1435.48 210.8ZM1385.66 281.688V287.251H1391.22V281.688H1385.66ZM1359.95 281.688H1354.39V287.251H1359.95V281.688ZM1359.95 139.912V134.348H1354.39V139.912H1359.95ZM1385.66 139.912H1391.22V134.348H1385.66V139.912ZM1508.35 276.124H1471.87V287.251H1508.35V276.124ZM1475.81 277.757L1417.97 219.821L1410.09 227.682L1467.93 285.618L1475.81 277.757ZM1414.03 218.188H1395.94V229.315H1414.03V218.188ZM1401.5 223.751V197.848H1390.37V223.751H1401.5ZM1395.94 203.412H1414.03V192.285H1395.94V203.412ZM1417.97 201.779L1475.81 143.843L1467.93 135.981L1410.09 193.917L1417.97 201.779ZM1471.87 145.476H1508.35V134.348H1471.87V145.476ZM1504.47 135.924L1431.6 206.812L1439.36 214.788L1512.23 143.9L1504.47 135.924ZM1431.6 214.788L1504.47 285.675L1512.23 277.7L1439.36 206.812L1431.6 214.788ZM1385.66 276.124H1359.95V287.251H1385.66V276.124ZM1365.51 281.688V139.912H1354.39V281.688H1365.51ZM1359.95 145.476H1385.66V134.348H1359.95V145.476ZM1380.09 139.912V281.688H1391.22V139.912H1380.09Z" fill="url(#paint2_linear_351_18549)"/>
<path fill-rule="evenodd" clip-rule="evenodd" d="M1540.79 349.965C1537.05 369.104 1516.62 385.668 1478.8 398.08C1441.44 410.341 1389.03 417.884 1325.15 420.404C1197.47 425.438 1025.12 410.363 838.438 373.898C742.408 355.14 652.022 332.565 571.04 307.889L569.55 312.727C650.732 337.465 741.294 360.08 837.468 378.866C1211.37 451.901 1528.48 439.396 1545.76 350.936C1549.06 334.044 1541.18 315.604 1523.68 296.314H1516.76C1536.03 316.337 1543.82 334.434 1540.79 349.965ZM1195.63 138.604L1201.88 135.295C1112.32 106.407 1009.84 79.9694 900.041 58.5229C526.143 -14.512 209.031 -2.00727 191.752 86.453C188.011 105.605 198.63 126.747 221.363 148.861L224.895 145.237C202.599 123.556 193.477 104.024 196.72 87.4235C200.458 68.2847 220.889 51.7206 258.71 39.3088C296.071 27.0482 348.483 19.5043 412.364 16.9853C540.043 11.9505 712.39 27.0259 899.071 63.491C1006.79 84.533 1107.41 110.378 1195.63 138.604ZM331.333 221.011C314.505 212.552 298.99 204.079 284.899 195.642L288.813 192.083C301.889 199.865 316.211 207.694 331.697 215.525L331.333 221.011Z" fill="url(#paint3_linear_351_18549)"/>
<path fill-rule="evenodd" clip-rule="evenodd" d="M1540.79 349.965C1537.05 369.104 1516.62 385.668 1478.8 398.08C1441.44 410.341 1389.03 417.884 1325.15 420.404C1197.47 425.438 1025.12 410.363 838.438 373.898C742.408 355.14 652.022 332.565 571.04 307.889L569.55 312.727C650.732 337.465 741.294 360.08 837.468 378.866C1211.37 451.901 1528.48 439.396 1545.76 350.936C1549.06 334.044 1541.18 315.604 1523.68 296.314H1516.76C1536.03 316.337 1543.82 334.434 1540.79 349.965ZM1195.63 138.604L1201.88 135.295C1112.32 106.407 1009.84 79.9694 900.041 58.5229C526.143 -14.512 209.031 -2.00727 191.752 86.453C188.011 105.605 198.63 126.747 221.363 148.861L224.895 145.237C202.599 123.556 193.477 104.024 196.72 87.4235C200.458 68.2847 220.889 51.7206 258.71 39.3088C296.071 27.0482 348.483 19.5043 412.364 16.9853C540.043 11.9505 712.39 27.0259 899.071 63.491C1006.79 84.533 1107.41 110.378 1195.63 138.604ZM331.333 221.011C314.505 212.552 298.99 204.079 284.899 195.642L288.813 192.083C301.889 199.865 316.211 207.694 331.697 215.525L331.333 221.011Z" fill="white" fill-opacity="0.8"/>
<circle cx="205.566" cy="66.3512" r="16.0465" fill="#FDF1EB"/>
<circle cx="1524.32" cy="377.36" r="31.8399" stroke="#FDF1EB" stroke-width="2.0248"/>
<circle cx="1524.37" cy="377.409" r="43.5331" stroke="#FDF1EB" stroke-width="2.0248"/>
<circle cx="1524.32" cy="377.359" r="16.0465" fill="#FDF1EB"/>
<path d="M1534.83 261.894C1570.35 261.894 1571.39 257.715 1571.39 210.699C1571.39 257.715 1571.39 261.894 1607.96 261.894C1571.39 261.894 1571.39 266.073 1571.39 313.089C1571.39 266.073 1570.35 261.894 1534.83 261.894Z" fill="white" stroke="white" stroke-width="2.0248" stroke-linejoin="round"/>
<path d="M1512.4 218.666C1528.75 218.666 1529.23 216.738 1529.23 195.053C1529.23 216.738 1529.23 218.666 1546.06 218.666C1529.23 218.666 1529.23 220.594 1529.23 242.279C1529.23 220.594 1528.75 218.666 1512.4 218.666Z" fill="white" stroke="white" stroke-width="2.0248" stroke-linejoin="round"/>
<path d="M1582.82 183.048C1591.03 183.048 1591.27 182.083 1591.27 171.223C1591.27 182.083 1591.27 183.048 1599.71 183.048C1591.27 183.048 1591.27 184.014 1591.27 194.874C1591.27 184.014 1591.03 183.048 1582.82 183.048Z" fill="white" stroke="white" stroke-width="0.939069" stroke-linejoin="round"/>
<path d="M151.531 25.0956C167.881 25.0956 168.362 23.168 168.362 1.48242C168.362 23.168 168.362 25.0956 185.194 25.0956C168.362 25.0956 168.362 27.0232 168.362 48.7088C168.362 27.0232 167.881 25.0956 151.531 25.0956Z" fill="white" stroke="white" stroke-width="2.0248" stroke-linejoin="round"/>
<path d="M193.523 186.157C202.311 186.157 202.569 185.121 202.569 173.467C202.569 185.121 202.569 186.157 211.615 186.157C202.569 186.157 202.569 187.193 202.569 198.848C202.569 187.193 202.311 186.157 193.523 186.157Z" fill="white" stroke="white" stroke-width="1.0882" stroke-linejoin="round"/>
<path d="M161.525 218.563C180.417 218.563 180.973 216.336 180.973 191.279C180.973 216.336 180.973 218.563 200.421 218.563C180.973 218.563 180.973 220.791 180.973 245.848C180.973 220.791 180.417 218.563 161.525 218.563Z" fill="white" stroke="white" stroke-width="2.33958" stroke-linejoin="round"/>
<path d="M141.209 66.4028C150.826 66.4028 151.109 65.2689 151.109 52.5137C151.109 65.2689 151.109 66.4028 161.009 66.4028C151.109 66.4028 151.109 67.5366 151.109 80.2918C151.109 67.5366 150.826 66.4028 141.209 66.4028Z" fill="white" stroke="white" stroke-width="1.19097" stroke-linejoin="round"/>
<defs>
<linearGradient id="paint0_linear_351_18549" x1="650.112" y1="133.017" x2="658.616" y2="423.93" gradientUnits="userSpaceOnUse">
<stop stop-color="#66EAE8"/>
<stop offset="0.328125" stop-color="#F0BD9D" stop-opacity="0.28"/>
<stop offset="1" stop-color="#C9A5F3" stop-opacity="0.19"/>
</linearGradient>
<linearGradient id="paint1_linear_351_18549" x1="293.055" y1="74.5166" x2="1116.6" y2="719.144" gradientUnits="userSpaceOnUse">
<stop offset="0.015625" stop-color="#65D2EA"/>
<stop offset="0.290202" stop-color="#83F8FF"/>
<stop offset="0.630208" stop-color="#FFB38E"/>
<stop offset="0.770833" stop-color="#FFCABE"/>
<stop offset="1" stop-color="#BB9BFF"/>
</linearGradient>
<linearGradient id="paint2_linear_351_18549" x1="309.051" y1="57.001" x2="1132.6" y2="701.628" gradientUnits="userSpaceOnUse">
<stop offset="0.015625" stop-color="#65D2EA"/>
<stop offset="0.290202" stop-color="#83F8FF"/>
<stop offset="0.630208" stop-color="#FFB38E"/>
<stop offset="0.770833" stop-color="#FFCABE"/>
<stop offset="1" stop-color="#BB9BFF"/>
</linearGradient>
<linearGradient id="paint3_linear_351_18549" x1="506.705" y1="-31.7546" x2="868.754" y2="426.408" gradientUnits="userSpaceOnUse">
<stop stop-color="#F4BA99"/>
<stop offset="0.46875" stop-color="#86E2FF"/>
<stop offset="0.760417" stop-color="#E4AAFF" stop-opacity="0.99"/>
<stop offset="0.9999" stop-color="#FFC6BA"/>
</linearGradient>
</defs>
</svg>
